<?xml version="1.0" standalone="no"?>
<!DOCTYPE svg PUBLIC "-//W3C//DTD SVG 20010904//EN"
 "http://www.w3.org/TR/2001/REC-SVG-20010904/DTD/svg10.dtd">
<svg version="1.0" xmlns="http://www.w3.org/2000/svg"
 width="700.000000pt" height="700.000000pt" viewBox="0 0 700.000000 700.000000"
 preserveAspectRatio="xMidYMid meet">
<metadata>
Created by potrace 1.14, written by Peter Selinger 2001-2017
</metadata>
<g transform="translate(0.000000,700.000000) scale(0.100000,-0.100000)"
fill="#000000" stroke="none">
<path d="M3203 6700 c-605 -59 -1160 -282 -1631 -657 -129 -103 -379 -353
-482 -483 -358 -451 -579 -968 -670 -1565 -28 -178 -38 -584 -21 -761 29 -287
105 -625 132 -582 5 7 9 27 9 44 0 49 53 248 97 364 34 90 38 108 27 125 -7
11 -21 61 -31 110 -25 126 -25 491 0 655 148 956 751 1797 1593 2218 292 146
570 231 914 279 190 26 548 24 746 -5 1055 -154 1900 -830 2309 -1848 96 -236
151 -467 164 -681 4 -67 10 -126 14 -129 4 -4 14 1 21 12 21 28 102 214 133
303 l27 77 -28 120 c-59 250 -189 602 -287 779 -380 687 -990 1202 -1728 1459
-333 116 -614 165 -981 171 -129 2 -276 0 -327 -5z"/>
<path d="M3270 6374 c-569 -53 -1062 -249 -1503 -596 -56 -44 -176 -155 -267
-247 -132 -132 -185 -195 -265 -310 -55 -79 -113 -163 -129 -185 -42 -61 -167
-324 -219 -461 -81 -214 -138 -444 -169 -675 -14 -106 -15 -528 -1 -599 l8
-43 44 83 c62 116 195 311 295 432 467 567 1138 960 1769 1038 125 15 446 6
537 -15 404 -94 700 -386 700 -691 0 -132 -65 -281 -165 -380 -72 -72 -168
-124 -395 -215 -247 -100 -325 -145 -418 -244 -117 -124 -161 -327 -108 -501
46 -152 197 -310 386 -405 175 -87 313 -119 555 -127 260 -8 467 19 715 94
598 180 1202 628 1602 1185 l69 97 -10 143 c-29 384 -97 659 -246 991 -385
855 -1201 1461 -2163 1607 -133 21 -505 35 -622 24z"/>
</g>
</svg>
