<svg id="header" data-name="header" xmlns="http://www.w3.org/2000/svg" viewBox="0 0 5120 5120"><defs><style>.cls-1{fill:#fff;stroke:#2a2442;stroke-miterlimit:10;stroke-width:150px;}.cls-2{fill:#0b0033;}</style></defs><title>a whisper</title><path class="cls-1" d="M-1015.75-1624.33c136.66,0,273.32.73,410-.41,47.07-.39,89,12.52,128.78,36.13a419.49,419.49,0,0,1,83.1,64.87Q-282.61-1412.26-171-1301.08-29.26-1159.14,112.33-1017q133.13,133.2,266.54,266.12Q627.08-502.77,875.2-254.61q115,115.07,230,230.25Q1246.6,117.36,1388,259.12q82.39,82.53,165,164.88,96.08,95.81,192.27,191.48,72.62,72.51,144.85,145.39,114.59,114.95,229.23,229.84c35.16,35.26,71.06,69.81,105.26,106,38.62,40.84,71,86.28,91.14,139.33,9.26,24.37,14.76,49.57,14.74,76q-.29,402-.07,803.93c0,37-4,73.24-18,107.65-23.94,58.82-61.86,106.89-114.12,143.1a339.48,339.48,0,0,1-64.85,34.85,186.72,186.72,0,0,1-66,13.94c-28.64.83-57.31.79-86,.79q-360,.07-719.94,0-23,0-46-.15c-48.89-.37-92.11-17.33-132.64-43.72-37.68-24.54-69.29-55.8-100.81-87.25q-109.11-108.86-218-217.94Q591.74,1894.71,419.49,1722q-146.44-146.68-293-293.26-229-228.94-458.2-457.75Q-449.4,853.47-567.11,735.93-749.54,553.3-931.8,370.52c-82.24-82.25-165-164-247.21-246.28q-194.11-194.17-387.8-388.79c-23.43-23.54-46.55-47.45-68.64-72.23-30.15-33.81-49.52-74-63.62-116.64a246.93,246.93,0,0,1-12.33-78.45q.51-404,0-807.93c-.09-46,12.08-87.84,34-127.66,15.61-28.32,37-51.85,59-75,29.94-31.52,65.7-54,106.43-68.45,24.55-8.72,49.81-13.66,76.27-13.58C-1295.73-1624.11-1155.74-1624.33-1015.75-1624.33Z" transform="translate(2250 2160)"/><path class="cls-1" d="M1551.39-1624.33c168.66,0,337.32.29,506-.24,35-.11,66.82,9.41,98.06,23.54,46.66,21.09,83.08,54.92,115,93.67a275.2,275.2,0,0,1,57,117.39c2,9,2.46,18.46,2.85,27.75.47,11.31.12,22.66.12,34q0,493,.16,986c0,22.94-2.2,45.4-9.94,66.84C2314.92-259.86,2307.12-245,2300-230c-23.2,48.73-58.38,87.44-102.95,116.92-47,31.09-98.65,49.36-156,47.92-22-.55-44-.05-65.86-2.1-45.8-4.31-85-25.13-121.38-51.93-10.65-7.86-20.22-17.22-30.08-26.12-20.24-18.27-40.67-36.35-60.37-55.19-14.9-14.25-29.6-28.86-43-44.52-35.9-42-76-80-115.39-118.51-20.93-20.46-42.84-40-62.6-61.54-27.46-29.94-56.92-57.76-86.1-85.91-15.8-15.24-31.66-30.47-46.51-46.61-47.77-51.91-98.34-101-149.31-149.7-22.09-21.12-42.37-44.1-63.91-65.81-39.78-40.09-79.91-79.82-119.83-119.77Q962-1007.78,847.23-1122.59c-25.52-25.4-42.84-55.75-56.85-88.31a433.44,433.44,0,0,1-16.25-42.85c-6.27-20.31-12.11-40.82-12.89-62.36a152.45,152.45,0,0,1,3.36-39.66c5.91-26,12.89-51.61,22.3-76.57,21.78-57.75,57.65-104.49,108.61-139.47,20.33-14,41.43-26.63,64.37-35.86,25.48-10.27,51.65-16.84,79.53-16.79Q1295.4-1624.07,1551.39-1624.33Z" transform="translate(2250 2160)"/><path class="cls-1" d="M-1711.19,1640.09c0-166.61.54-333.23-.33-499.85-.27-50.53,13.81-95.78,40.85-137.51,25.59-39.49,57.12-73.33,96.8-99.3,31.53-20.64,65.28-36.94,102.29-43,45.47-7.39,91.58-8.15,136.93,2.66,40.79,9.73,76.91,29.85,109.87,54.94,35.42,27,70,55.13,99.17,89.24,9.5,11.13,19,22.24,28.32,33.56,26.21,32,56.81,59.68,85.77,89,35.49,35.91,70.54,72.26,106.22,108,42.72,42.77,86.83,84.18,128.68,127.78,67.21,70,138,136.4,206.32,205.22q113.76,114.53,228.14,228.42c36.12,36.2,72.25,72.39,108,109,15.78,16.17,30.51,33.38,42.69,52.53,13.26,20.88,22.52,43.64,31.07,66.75A318.5,318.5,0,0,1-144,2095.29a167.53,167.53,0,0,1-.4,45.67c-3.67,25.72-12,50.39-21.1,74.77a438.54,438.54,0,0,1-23.81,52.62c-28.43,53.69-70.1,93-124.92,118.94C-339,2399-364,2409.7-391.45,2413.17c-11.86,1.5-23.83,3-35.76,3q-503.85.24-1007.7.26c-44,0-83.64-12.21-120.62-35.65-43.29-27.44-80.08-61.55-110.11-103-22.23-30.66-36.43-65-43.33-102-2.53-13.61-2.13-27.87-2.14-41.84Q-1711.3,1887-1711.19,1640.09Z" transform="translate(2250 2160)"/><path class="cls-2" d="M-1850,2960c-220,0-400-180-400-400V-1760c0-220,180-400,400-400H2470c220,0,400,180,400,400V2560c0,220-180,400-400,400Zm970.91-4584c-75.16-.21-199.65-.32-276.65-.26s-291.61.78-305.84,2.12-67.62,19.46-88.65,29.61-78,60.5-89.88,73.35-45,70-54.37,92.49-16.88,208-16.77,356.16.74,550.57,1.83,565.17,17.88,70.54,27.08,93.32,57.06,86.18,69.49,99.57,104.17,106.23,175.23,177.55,295.73,296,341.09,341.14,219.42,219.08,286.27,286.09S-531.8,771.19-488.64,814.29s225.69,225.39,309.7,309.3,349.4,349.17,403.12,402.93,247,247.31,310.16,310.61S796.77,2100,836.71,2140s159.56,159.36,176.92,176.6,88.09,65.66,111.12,77.58,97.67,22.07,106.09,22.11,138.64.08,270.63.09,492.86,0,508.63,0,67.38-2,79.69-3.43,53.64-16,65.92-21.74,62.82-43.4,87.62-66.57,73.09-116.87,78-136.31,9-192.89,8.94-340.28-1.1-547.57-2.61-561.78-23.82-72.35-38.26-99.44-80.65-106-99.93-125.44-104.6-105.1-146.63-147.23-174.51-175.07-201-201.76-125.48-125.58-160.74-160.67-152.92-152.39-183.18-182.6S1345.57,216.6,1293.72,164.62s-223-223.53-265.18-265.75S800.75-329.06,709.77-420,338.86-790.75,290-839.52,69.84-1059.61,17.91-1111.72s-222.4-222.74-263.28-263.53-160.36-159-174.82-171.87-75.19-49.71-97.66-59.75S-803.93-1623.76-879.09-1624Zm2599.14-.23c-92.76-.08-245.46-.11-339.32-.08s-365.64,2.74-395.37,6.33l-25.48,10.27-22.94,9.23c-22.78,14.65-61,45-84.85,67.49S783.21-1421,778.7-1407s-15,57.19-16,64.41.05,36,1.87,47.55,11.88,47.82,14.69,55.75,18.19,42.6,26.81,59.9,75.61,91.3,117.68,133.4,171,171,193,193,89.21,90,100.71,102.28,65.85,65.46,93.77,92.35,105.45,107.87,113.9,116.5,44.34,43.51,60.47,58.9,66.16,67.17,77.62,78.47,59.64,58.2,81.51,79.23,82,87.09,89.68,95.41,38,37.7,49,47.85,44.67,40.84,50,45.86,37.38,27.71,58.16,40.8S1985.06-67,1997.13-66.54s68.43-2.46,98.41-7.09,119.42-54.84,141.35-73.59,66.45-89.54,70.56-97.74,15.33-40.36,18.07-52.43,4.93-192.78,4.88-373.54,0-662.4.1-668.64-.5-26.86-.74-32-8.87-37.09-16.77-59.93-58-92.18-76.76-112.14-95-62.7-112.36-69.21S1812.81-1624.1,1720.05-1624.19Zm-3431,3097.66c-.15,91.64-.28,240.7-.3,331.24s0,335.58-.09,343.35,7.09,43.78,12.89,63.42,47.82,83.35,66.19,104.12,93.94,73.24,115,83.05,233.47,17.79,418.21,17.76,677.18-.56,683.75-1,35.62-5.45,50-9.35,72.71-33.47,99.25-51.41,80.51-94.08,85.21-103.57,19.19-46.4,24-59.89,12.93-57.16,13.6-65.6-2.69-40.62-5-53.21-16.3-55.19-21.19-67.81-28.23-52-35.63-62-45.39-50.73-65.14-70.74-106.31-106.81-148.19-148.63-183.29-182.81-221.54-220S-796,1346.49-819.6,1323.11s-101.61-101.49-121.06-121.31-84.26-84.77-100.64-100.45-60.23-65.53-65.4-71.69-33.25-36.36-50.79-53.49-82.84-68.27-101.83-80.71-95.9-34.59-121.06-37.35S-1487.5,865.5-1507,871.63s-82.93,45.26-102.51,61.7-70.45,89-81.76,112.89S-1710.77,1381.83-1710.92,1473.47Z" transform="translate(2250 2160)"/></svg>
